<svg width="20" height="20" viewBox="0 0 20 20" fill="none" xmlns="http://www.w3.org/2000/svg">
<path d="M3.75 3C3.55109 3 3.36032 3.07902 3.21967 3.21967C3.07902 3.36032 3 3.55109 3 3.75V7.25C3 7.44891 3.07902 7.63968 3.21967 7.78033C3.36032 7.92098 3.55109 8 3.75 8C3.94891 8 4.13968 7.92098 4.28033 7.78033C4.42098 7.63968 4.5 7.44891 4.5 7.25V5.56L6.72 7.78C6.86217 7.91248 7.05022 7.9846 7.24452 7.98117C7.43882 7.97775 7.62421 7.89903 7.76162 7.76162C7.89903 7.62421 7.97775 7.43882 7.98117 7.24452C7.9846 7.05022 7.91248 6.86217 7.78 6.72L5.56 4.5H7.25C7.44891 4.5 7.63968 4.42098 7.78033 4.28033C7.92098 4.13968 8 3.94891 8 3.75C8 3.55109 7.92098 3.36032 7.78033 3.21967C7.63968 3.07902 7.44891 3 7.25 3H3.75ZM3.75 17C3.55109 17 3.36032 16.921 3.21967 16.7803C3.07902 16.6397 3 16.4489 3 16.25V12.75C3 12.5511 3.07902 12.3603 3.21967 12.2197C3.36032 12.079 3.55109 12 3.75 12C3.94891 12 4.13968 12.079 4.28033 12.2197C4.42098 12.3603 4.5 12.5511 4.5 12.75V14.44L6.72 12.22C6.86217 12.0875 7.05022 12.0154 7.24452 12.0188C7.43882 12.0223 7.62421 12.101 7.76162 12.2384C7.89903 12.3758 7.97775 12.5612 7.98117 12.7555C7.9846 12.9498 7.91248 13.1378 7.78 13.28L5.56 15.5H7.25C7.44891 15.5 7.63968 15.579 7.78033 15.7197C7.92098 15.8603 8 16.0511 8 16.25C8 16.4489 7.92098 16.6397 7.78033 16.7803C7.63968 16.921 7.44891 17 7.25 17H3.75ZM17 3.75C17 3.55109 16.921 3.36032 16.7803 3.21967C16.6397 3.07902 16.4489 3 16.25 3H12.75C12.5511 3 12.3603 3.07902 12.2197 3.21967C12.079 3.36032 12 3.55109 12 3.75C12 3.94891 12.079 4.13968 12.2197 4.28033C12.3603 4.42098 12.5511 4.5 12.75 4.5H14.44L12.22 6.72C12.0875 6.86217 12.0154 7.05022 12.0188 7.24452C12.0223 7.43882 12.101 7.62421 12.2384 7.76162C12.3758 7.89903 12.5612 7.97775 12.7555 7.98117C12.9498 7.9846 13.1378 7.91248 13.28 7.78L15.5 5.56V7.25C15.5 7.44891 15.579 7.63968 15.7197 7.78033C15.8603 7.92098 16.0511 8 16.25 8C16.4489 8 16.6397 7.92098 16.7803 7.78033C16.921 7.63968 17 7.44891 17 7.25V3.75ZM16.25 17C16.4489 17 16.6397 16.921 16.7803 16.7803C16.921 16.6397 17 16.4489 17 16.25V12.75C17 12.5511 16.921 12.3603 16.7803 12.2197C16.6397 12.079 16.4489 12 16.25 12C16.0511 12 15.8603 12.079 15.7197 12.2197C15.579 12.3603 15.5 12.5511 15.5 12.75V14.44L13.28 12.22C13.2113 12.1463 13.1285 12.0872 13.0365 12.0462C12.9445 12.0052 12.8452 11.9832 12.7445 11.9814C12.6438 11.9796 12.5438 11.9982 12.4504 12.0359C12.357 12.0736 12.2722 12.1297 12.201 12.201C12.1297 12.2722 12.0736 12.357 12.0359 12.4504C11.9982 12.5438 11.9796 12.6438 11.9814 12.7445C11.9832 12.8452 12.0052 12.9445 12.0462 13.0365C12.0872 13.1285 12.1463 13.2113 12.22 13.28L14.44 15.5H12.75C12.5511 15.5 12.3603 15.579 12.2197 15.7197C12.079 15.8603 12 16.0511 12 16.25C12 16.4489 12.079 16.6397 12.2197 16.7803C12.3603 16.921 12.5511 17 12.75 17H16.25Z" fill="white"/>
</svg>
