<svg width="26" height="22" viewBox="0 0 26 22" fill="none" xmlns="http://www.w3.org/2000/svg">
<path fill-rule="evenodd" clip-rule="evenodd" d="M25.5 11C25.5 11.4144 25.3354 11.8119 25.0423 12.1049C24.7493 12.3979 24.3519 12.5625 23.9375 12.5625H5.83436L12.5437 19.2688C12.689 19.414 12.8042 19.5865 12.8829 19.7763C12.9615 19.9661 13.002 20.1696 13.002 20.375C13.002 20.5805 12.9615 20.7839 12.8829 20.9737C12.8042 21.1635 12.689 21.336 12.5437 21.4813C12.3985 21.6265 12.226 21.7418 12.0362 21.8204C11.8464 21.899 11.6429 21.9395 11.4375 21.9395C11.232 21.9395 11.0286 21.899 10.8388 21.8204C10.649 21.7418 10.4765 21.6265 10.3312 21.4813L0.956235 12.1063C0.810725 11.9611 0.695278 11.7887 0.616508 11.5989C0.537738 11.409 0.497192 11.2055 0.497192 11C0.497192 10.7945 0.537738 10.591 0.616508 10.4012C0.695278 10.2113 0.810725 10.0389 0.956235 9.89377L10.3312 0.518771C10.6246 0.225375 11.0226 0.0605469 11.4375 0.0605469C11.8524 0.0605469 12.2503 0.225375 12.5437 0.518771C12.8371 0.812167 13.002 1.2101 13.002 1.62502C13.002 2.03995 12.8371 2.43788 12.5437 2.73127L5.83436 9.43752H23.9375C24.3519 9.43752 24.7493 9.60214 25.0423 9.89517C25.3354 10.1882 25.5 10.5856 25.5 11Z" fill="white"/>
</svg>
