<svg width="13" height="13" viewBox="0 0 13 13" fill="none" xmlns="http://www.w3.org/2000/svg">
<g clip-path="url(#clip0_113_47)">
<path d="M12.5954 1.57625C12.6713 1.6524 12.7139 1.75554 12.7139 1.86306C12.7139 1.97059 12.6713 2.07372 12.5954 2.14987L11.748 2.99812L10.123 1.37312L10.9704 0.524874C11.0466 0.448714 11.1499 0.40593 11.2576 0.40593C11.3653 0.40593 11.4686 0.448714 11.5448 0.524874L12.5954 1.57544V1.57625ZM11.1735 3.57175L9.54851 1.94675L4.01295 7.48312C3.96823 7.52783 3.93457 7.58236 3.91464 7.64237L3.26058 9.60375C3.24871 9.63951 3.24703 9.67786 3.25571 9.71452C3.26439 9.75118 3.2831 9.7847 3.30974 9.81134C3.33638 9.83798 3.3699 9.85668 3.40656 9.86536C3.44322 9.87404 3.48157 9.87236 3.51733 9.8605L5.4787 9.20644C5.53863 9.18674 5.59316 9.15336 5.63795 9.10894L11.1735 3.57256V3.57175Z" fill="black"/>
<path fill-rule="evenodd" clip-rule="evenodd" d="M0.8125 10.9688C0.8125 11.292 0.940904 11.602 1.16946 11.8305C1.39802 12.0591 1.70802 12.1875 2.03125 12.1875H10.9688C11.292 12.1875 11.602 12.0591 11.8305 11.8305C12.0591 11.602 12.1875 11.292 12.1875 10.9688V6.09375C12.1875 5.98601 12.1447 5.88267 12.0685 5.80649C11.9923 5.7303 11.889 5.6875 11.7812 5.6875C11.6735 5.6875 11.5702 5.7303 11.494 5.80649C11.4178 5.88267 11.375 5.98601 11.375 6.09375V10.9688C11.375 11.0765 11.3322 11.1798 11.256 11.256C11.1798 11.3322 11.0765 11.375 10.9688 11.375H2.03125C1.92351 11.375 1.82017 11.3322 1.74399 11.256C1.6678 11.1798 1.625 11.0765 1.625 10.9688V2.03125C1.625 1.92351 1.6678 1.82017 1.74399 1.74399C1.82017 1.6678 1.92351 1.625 2.03125 1.625H7.3125C7.42024 1.625 7.52358 1.5822 7.59976 1.50601C7.67595 1.42983 7.71875 1.32649 7.71875 1.21875C7.71875 1.11101 7.67595 1.00767 7.59976 0.931488C7.52358 0.855301 7.42024 0.8125 7.3125 0.8125H2.03125C1.70802 0.8125 1.39802 0.940904 1.16946 1.16946C0.940904 1.39802 0.8125 1.70802 0.8125 2.03125V10.9688Z" fill="black"/>
</g>
<defs>
<clipPath id="clip0_113_47">
<rect width="13" height="13" fill="white"/>
</clipPath>
</defs>
</svg>
