<svg width="26" height="22" viewBox="0 0 26 22" fill="none" xmlns="http://www.w3.org/2000/svg">
<path fill-rule="evenodd" clip-rule="evenodd" d="M0.5 11C0.5 10.5856 0.66462 10.1882 0.957646 9.89517C1.25067 9.60214 1.6481 9.43752 2.0625 9.43752H20.1656L13.4562 2.73127C13.1629 2.43788 12.998 2.03995 12.998 1.62502C12.998 1.2101 13.1629 0.812167 13.4562 0.518771C13.7496 0.225375 14.1476 0.0605469 14.5625 0.0605469C14.9774 0.0605469 15.3754 0.225375 15.6688 0.518771L25.0438 9.89377C25.1893 10.0389 25.3047 10.2113 25.3835 10.4012C25.4622 10.591 25.5028 10.7945 25.5028 11C25.5028 11.2055 25.4622 11.409 25.3835 11.5989C25.3047 11.7887 25.1893 11.9611 25.0438 12.1063L15.6688 21.4813C15.3754 21.7747 14.9774 21.9395 14.5625 21.9395C14.1476 21.9395 13.7496 21.7747 13.4562 21.4813C13.1629 21.1879 12.998 20.7899 12.998 20.375C12.998 19.9601 13.1629 19.5622 13.4562 19.2688L20.1656 12.5625H2.0625C1.6481 12.5625 1.25067 12.3979 0.957646 12.1049C0.66462 11.8119 0.5 11.4144 0.5 11Z" fill="white"/>
</svg>
