<svg width="14" height="14" viewBox="0 0 14 14" fill="none" xmlns="http://www.w3.org/2000/svg">
<path d="M0.711216 0.711247C0.798302 0.623941 0.901756 0.554673 1.01565 0.507411C1.12955 0.460148 1.25165 0.435822 1.37497 0.435822C1.49828 0.435822 1.62038 0.460148 1.73428 0.507411C1.84818 0.554673 1.95163 0.623941 2.03872 0.711247L6.99997 5.67437L11.9612 0.711247C12.0484 0.624082 12.1519 0.554939 12.2657 0.507766C12.3796 0.460592 12.5017 0.436312 12.625 0.436312C12.7482 0.436312 12.8703 0.460592 12.9842 0.507766C13.0981 0.554939 13.2016 0.624082 13.2887 0.711247C13.3759 0.798412 13.445 0.901891 13.4922 1.01578C13.5394 1.12966 13.5637 1.25173 13.5637 1.375C13.5637 1.49827 13.5394 1.62033 13.4922 1.73422C13.445 1.8481 13.3759 1.95158 13.2887 2.03875L8.32559 7L13.2887 11.9612C13.3759 12.0484 13.445 12.1519 13.4922 12.2658C13.5394 12.3797 13.5637 12.5017 13.5637 12.625C13.5637 12.7483 13.5394 12.8703 13.4922 12.9842C13.445 13.0981 13.3759 13.2016 13.2887 13.2887C13.2016 13.3759 13.0981 13.4451 12.9842 13.4922C12.8703 13.5394 12.7482 13.5637 12.625 13.5637C12.5017 13.5637 12.3796 13.5394 12.2657 13.4922C12.1519 13.4451 12.0484 13.3759 11.9612 13.2887L6.99997 8.32562L2.03872 13.2887C1.95155 13.3759 1.84807 13.4451 1.73419 13.4922C1.6203 13.5394 1.49824 13.5637 1.37497 13.5637C1.2517 13.5637 1.12963 13.5394 1.01575 13.4922C0.901861 13.4451 0.798381 13.3759 0.711216 13.2887C0.624051 13.2016 0.554908 13.0981 0.507735 12.9842C0.460562 12.8703 0.436282 12.7483 0.436282 12.625C0.436282 12.5017 0.460562 12.3797 0.507735 12.2658C0.554908 12.1519 0.624051 12.0484 0.711216 11.9612L5.67434 7L0.711216 2.03875C0.62391 1.95166 0.554642 1.84821 0.50738 1.73431C0.460118 1.62041 0.435791 1.49831 0.435791 1.375C0.435791 1.25168 0.460118 1.12958 0.50738 1.01568C0.554642 0.901787 0.62391 0.798333 0.711216 0.711247Z" fill="black"/>
</svg>
